<svg width="256" height="256" viewBox="0 0 256 256" fill="none" xmlns="http://www.w3.org/2000/svg">
<path d="M228.198 65.4354C228.132 60.3785 224.241 56.2011 219.207 55.7391C177.37 51.8255 143.228 29.4652 131.972 21.2862C129.619 19.5713 126.431 19.5713 124.079 21.2862C112.845 29.4652 78.7027 51.8255 36.8658 55.7391C31.8313 56.2011 27.962 60.3785 27.8741 65.4354C27.3684 98.4372 32.6668 210.48 125.508 235.413C127.157 235.853 128.894 235.853 130.543 235.413C223.384 210.503 228.682 98.437 228.198 65.4354Z" fill="#2D80EE"/>
<line x1="130.179" y1="206.154" x2="200.599" y2="84.1815" stroke="#F5F5F5" stroke-width="8"/>
<line x1="123.954" y1="206.727" x2="53.5334" y2="84.7548" stroke="#F5F5F5" stroke-width="8"/>
<path d="M57.7969 80.8179C112.799 80.8179 143.636 80.8179 198.638 80.8179" stroke="#F5F5F5" stroke-width="8"/>
<circle cx="221.89" cy="69.1568" r="26.11" fill="#30A24E"/>
<path d="M155.592 210.165C155.592 224.803 143.725 236.67 129.086 236.67C114.448 236.67 102.581 224.803 102.581 210.165C102.581 195.526 114.448 183.659 129.086 183.659C143.725 183.659 155.592 195.526 155.592 210.165Z" fill="#E94637"/>
<circle cx="34.11" cy="69.1568" r="26.11" fill="#FBBD14"/>
<path d="M119.097 91.701V102.034H108.509V103.533C115.231 103.928 116.192 104.797 116.192 110.64V145.699C116.192 151.542 115.151 152.569 108.509 152.806V154.305H119.097V165.323H124.352V154.305H129.014V165.323H134.269V154.305H135.236C150.761 154.305 154.603 145.777 154.603 140.092C154.603 129.827 144.12 127.616 140.919 126.826C143.72 126.116 151.881 124.536 151.881 115.456C151.881 107.357 145.907 102.836 134.269 102.131V91.701H129.014V102.034H124.352V91.701H119.097ZM126.114 104.955H129.636C138.838 104.955 143.718 108.746 143.718 115.773C143.718 121.932 139.477 125.405 131.955 125.405H124.354V107.324C124.354 105.665 124.913 104.955 126.114 104.955ZM124.354 128.565C134.997 128.565 145.399 129.039 145.399 140.172C145.399 149.49 138.118 151.384 129.396 151.384C125.474 151.384 124.354 150.673 124.354 148.146V128.565Z" fill="#F5F5F5"/>
</svg>
