<svg width="256" height="256" viewBox="0 0 256 256" fill="none" xmlns="http://www.w3.org/2000/svg">
<path d="M228.198 65.4354C228.132 60.3785 224.241 56.2011 219.207 55.7391C177.37 51.8255 143.228 29.4652 131.972 21.2862C129.619 19.5713 126.431 19.5713 124.079 21.2862C112.845 29.4652 78.7027 51.8255 36.8658 55.7391C31.8313 56.2011 27.962 60.3785 27.8741 65.4354C27.3684 98.4372 32.6668 210.48 125.508 235.413C127.157 235.853 128.894 235.853 130.543 235.413C223.384 210.503 228.682 98.437 228.198 65.4354Z" fill="#2D80EE"/>
<circle cx="221.89" cy="69.1569" r="26.11" fill="#30A24E"/>
<path d="M155.592 210.165C155.592 224.803 143.725 236.67 129.086 236.67C114.448 236.67 102.581 224.803 102.581 210.165C102.581 195.526 114.448 183.659 129.086 183.659C143.725 183.659 155.592 195.526 155.592 210.165Z" fill="#E94637"/>
<circle cx="34.11" cy="69.1568" r="26.11" fill="#FBBD14"/>
<path d="M116.078 62V77.8981H100V80.2051C110.208 80.8126 111.667 82.149 111.667 91.1391V145.08C111.667 154.07 110.087 155.65 100 156.014V158.321H116.078V175.273H124.059V158.321H131.139V175.273H139.12V158.321H140.589C164.165 158.321 170 145.201 170 136.453C170 120.66 154.08 117.258 149.219 116.043C153.472 114.95 165.866 112.52 165.866 98.5488C165.866 86.0882 156.794 79.1314 139.12 78.0475V62H131.139V77.8981H124.059V62H116.078ZM126.735 82.3919H132.083C146.059 82.3919 153.47 88.2246 153.47 99.0371C153.47 108.513 147.029 113.856 135.605 113.856H124.062V86.0366C124.062 83.4853 124.912 82.3919 126.735 82.3919ZM124.062 118.718C140.226 118.718 156.022 119.447 156.022 136.577C156.022 150.913 144.965 153.827 131.719 153.827C125.764 153.827 124.062 152.733 124.062 148.845V118.718Z" fill="#F5F5F5"/>
</svg>
