<svg width="256" height="232" viewBox="0 0 256 232" fill="none" xmlns="http://www.w3.org/2000/svg">
<path d="M234.878 48.4645C234.808 43.0704 230.657 38.6145 225.287 38.1217C180.661 33.9472 144.243 10.0962 132.236 1.37196C129.727 -0.45732 126.327 -0.45732 123.818 1.37196C111.835 10.0962 75.4162 33.9472 30.7902 38.1217C25.4201 38.6145 21.2928 43.0704 21.199 48.4645C20.6597 83.6664 26.3112 203.179 125.342 229.774C127.101 230.243 128.953 230.243 130.712 229.774C229.743 203.203 235.394 83.6661 234.878 48.4645Z" fill="#2D80EE"/>
<line x1="130.555" y1="198.697" x2="205.67" y2="68.5936" stroke="#F5F5F5" stroke-width="8"/>
<line x1="123.915" y1="199.042" x2="48.7999" y2="68.9384" stroke="#F5F5F5" stroke-width="8"/>
<path d="M53.1168 64.8724C111.785 64.8724 144.679 64.8724 203.347 64.8724" stroke="#F5F5F5" stroke-width="8"/>
<circle cx="228.149" cy="52.434" r="27.8507" fill="#30A24E"/>
<path d="M157.431 202.842C157.431 218.457 144.773 231.115 129.159 231.115C113.544 231.115 100.886 218.457 100.886 202.842C100.886 187.228 113.544 174.57 129.159 174.57C144.773 174.57 157.431 187.228 157.431 202.842Z" fill="#E94637"/>
<circle cx="27.8507" cy="52.434" r="27.8507" fill="#FBBD14"/>
<path d="M118.503 76.4811V87.5029H107.21V89.1023C114.38 89.5235 115.404 90.4499 115.404 96.6827V134.079C115.404 140.312 114.295 141.407 107.21 141.659V143.259H118.503V155.011H124.108V143.259H129.081V155.011H134.687V143.259H135.719C152.278 143.259 156.376 134.162 156.376 128.098C156.376 117.149 145.195 114.79 141.78 113.948C144.768 113.19 153.473 111.506 153.473 101.82C153.473 93.1809 147.101 88.358 134.687 87.6065V76.4811H129.081V87.5029H124.108V76.4811H118.503ZM125.988 90.6184H129.745C139.561 90.6184 144.766 94.6621 144.766 102.158C144.766 108.728 140.242 112.432 132.218 112.432H124.111V93.1452C124.111 91.3764 124.708 90.6184 125.988 90.6184ZM124.111 115.803C135.464 115.803 146.559 116.308 146.559 128.184C146.559 138.123 138.793 140.143 129.489 140.143C125.306 140.143 124.111 139.384 124.111 136.689V115.803Z" fill="#F5F5F5"/>
</svg>
